<svg preserveAspectRatio="xMidYMid meet" data-bbox="-34.811 29.877 730.062 367.866" xmlns="http://www.w3.org/2000/svg" viewBox="0 0 667 429" height="429" width="667" data-type="ugc" role="presentation" aria-hidden="true" aria-label="" wixshapeid="9484df_e1b92b166bca402cb752e1a0a74a290a.svg">
    <g>
        <g clip-path="url(#30bf1b25-b24d-4362-8c5c-b3bdcd4476ee_comp-lz1e0ayk)">
            <path fill="url(#38b44ca5-afa0-4d92-b479-36537cfc0f56_comp-lz1e0ayk)" d="M695.251 121.017V338.25a4.98 4.98 0 0 1-4.98 4.98H528.436a4.98 4.98 0 0 1-4.98-4.98V121.017a4.98 4.98 0 0 1 4.98-4.98h161.835a4.98 4.98 0 0 1 4.98 4.98"></path>
            <path fill="url(#4721aedb-1a5a-4ffc-861a-7c4e735f4a38_comp-lz1e0ayk)" transform="matrix(-1 0 0 1 136.984 116.037)" d="M171.795 4.98v217.233a4.98 4.98 0 0 1-4.98 4.98H4.98a4.98 4.98 0 0 1-4.98-4.98V4.98A4.98 4.98 0 0 1 4.98 0h161.835a4.98 4.98 0 0 1 4.98 4.98"></path>
            <path fill="#59577D" d="M464.999 101.697s5.904 7.309-3.373 19.115l-15.461 19.678s9.558 15.179 9.839 23.05 2.249 6.185 2.811 9.558 3.092 1.687 1.124 4.217-9.276 4.778-11.525 2.811a7 7 0 0 1-1.767-2.554 7 7 0 0 1-.482-3.069c0-1.124-3.935-7.589-4.216-9.557s-10.682-17.991-10.682-17.991-3.373-9.557.562-14.898 6.536-12.916 6.536-12.916-11.596 14.04-19.748 17.413c0 0-3.092.563-2.53 1.968s0 2.249-.843 3.654c-.844 1.406-6.747 17.71-8.714 21.927s-1.125 6.746-3.374 8.152-12.368.281-12.368-1.125c0-1.405 1.405-5.06 2.249-7.027.843-1.968 7.589-24.738 7.027-28.673-.562-3.936.281-9.277 4.498-11.525 4.216-2.249 25.58-20.521 26.705-20.521s33.732-1.687 33.732-1.687"></path>
            <path fill="#575A89" d="M426.577 56.44s5.622 1.967 7.871 9.276 6.465 22.77 3.935 32.89c-2.53 10.119-7.871 22.769-7.871 22.769s-5.341-3.936-7.308-3.092l5.341-22.208s-12.088-33.732-8.434-36.262a25.6 25.6 0 0 1 6.466-3.373"></path>
            <path fill="#8271EA" d="M185.012 181.132h307.281a6.64 6.64 0 0 1 6.639 6.639v187.772a6.64 6.64 0 0 1-6.639 6.639H185.012a6.64 6.64 0 0 1-6.639-6.639V187.771a6.64 6.64 0 0 1 6.639-6.639"></path>
            <path fill="#2F2E41" d="M394.531 171.411s.281 3.092.843 3.374c.563.281 4.779 7.308 0 8.714-4.778 1.405-7.59.843-8.714 1.405s-20.802 1.687-21.083-1.405 9.558-3.655 9.558-3.655 8.995-5.903 10.401-8.995c1.405-3.092 8.995.562 8.995.562"></path>
            <path fill="#ffffff" d="M434.89 196.222a1.29 1.29 0 0 1-.996.471H219.642c-1.343 0-1.791-1.797-.606-2.427l11.529-6.136c.187-.099.395-.151.606-.151h207.768c1.089 0 1.687 1.267.996 2.108z"></path>
            <path fill="#F3F3F3" d="m373.613 40.29 56.224 209.83a4.98 4.98 0 0 1-3.521 6.1l-156.32 41.886a4.98 4.98 0 0 1-6.1-3.522l-56.224-209.83a4.98 4.98 0 0 1 3.521-6.1l156.32-41.886a4.98 4.98 0 0 1 6.1 3.521"></path>
            <path fill="#E2E2E2" d="m331.979 60.468 6.444 24.048a2.49 2.49 0 0 1-1.76 3.05L230.844 115.92a2.49 2.49 0 0 1-3.05-1.761L221.35 90.11a2.49 2.49 0 0 1 1.761-3.05l105.817-28.353a2.49 2.49 0 0 1 3.05 1.76"></path>
            <path fill="#E2E2E2" d="m341.16 94.738 6.445 24.048a2.49 2.49 0 0 1-1.76 3.05L240.026 150.19a2.49 2.49 0 0 1-3.05-1.761l-6.444-24.049a2.49 2.49 0 0 1 1.761-3.05L338.11 92.977a2.49 2.49 0 0 1 3.05 1.76"></path>
            <path stroke-linecap="round" stroke-width="1.867" stroke="#000000" d="m383.78 72.204-11.204 11.204" fill="none"></path>
            <path fill="#CCC7E6" d="m350.344 129.009 6.444 24.048a2.49 2.49 0 0 1-1.76 3.05L249.21 184.46a2.49 2.49 0 0 1-3.05-1.761l-6.444-24.049a2.49 2.49 0 0 1 1.761-3.05l105.817-28.353a2.49 2.49 0 0 1 3.05 1.76"></path>
            <path fill="#E2E2E2" d="m359.527 163.279 6.444 24.048a2.49 2.49 0 0 1-1.76 3.05L258.392 218.73a2.49 2.49 0 0 1-3.05-1.761L248.9 192.92a2.49 2.49 0 0 1 1.761-3.05l105.817-28.353a2.49 2.49 0 0 1 3.05 1.76"></path>
            <path fill="#E2E2E2" d="m368.71 197.55 6.444 24.048a2.49 2.49 0 0 1-1.76 3.05l-105.818 28.354a2.49 2.49 0 0 1-3.05-1.761l-6.444-24.049a2.49 2.49 0 0 1 1.761-3.05l105.817-28.353a2.49 2.49 0 0 1 3.05 1.76"></path>
            <path fill="#E2E2E2" d="m377.892 231.82 6.444 24.048a2.49 2.49 0 0 1-1.76 3.05l-105.818 28.354a2.49 2.49 0 0 1-3.05-1.761l-6.444-24.049a2.49 2.49 0 0 1 1.761-3.05l105.817-28.353a2.49 2.49 0 0 1 3.05 1.76"></path>
            <path fill="#E2E2E2" d="m364.445 51.768 6.444 24.05a2.49 2.49 0 0 1-1.76 3.049l-24.05 6.444a2.49 2.49 0 0 1-3.049-1.761l-6.444-24.05a2.49 2.49 0 0 1 1.761-3.05l24.049-6.443a2.49 2.49 0 0 1 3.05 1.76"></path>
            <path fill="#8271EA" d="m373.627 86.038 6.444 24.05a2.49 2.49 0 0 1-1.76 3.049l-24.05 6.444a2.49 2.49 0 0 1-3.049-1.761l-6.444-24.049a2.49 2.49 0 0 1 1.761-3.05l24.049-6.443a2.49 2.49 0 0 1 3.05 1.76"></path>
            <path fill="#CCC7E6" d="m382.81 120.31 6.444 24.048a2.49 2.49 0 0 1-1.76 3.05l-24.05 6.444a2.49 2.49 0 0 1-3.049-1.761l-6.444-24.049a2.49 2.49 0 0 1 1.761-3.05l24.049-6.443a2.49 2.49 0 0 1 3.05 1.76"></path>
            <path fill="#E2E2E2" d="m391.993 154.58 6.444 24.048a2.49 2.49 0 0 1-1.76 3.05l-24.05 6.444a2.49 2.49 0 0 1-3.049-1.761l-6.444-24.049a2.49 2.49 0 0 1 1.761-3.05l24.049-6.443a2.49 2.49 0 0 1 3.05 1.76"></path>
            <path fill="#E2E2E2" d="m401.175 188.85 6.444 24.048a2.49 2.49 0 0 1-1.76 3.05l-24.05 6.444a2.49 2.49 0 0 1-3.049-1.761l-6.444-24.049a2.49 2.49 0 0 1 1.761-3.05l24.049-6.443a2.49 2.49 0 0 1 3.05 1.76"></path>
            <path fill="#E2E2E2" d="m410.358 223.12 6.444 24.05a2.49 2.49 0 0 1-1.76 3.049l-24.05 6.444a2.49 2.49 0 0 1-3.049-1.761l-6.444-24.049a2.49 2.49 0 0 1 1.761-3.05l24.049-6.443a2.49 2.49 0 0 1 3.05 1.76"></path>
            <path fill="#ffffff" d="m360.466 106.198-3.968-2.29a.93.93 0 1 0-.93 1.612l4.779 2.76a.93.93 0 0 0 1.272-.341l6.985-12.098a.93.93 0 1 0-1.612-.931z"></path>
            <path fill="#ffffff" d="m370.028 140.613-3.968-2.291a.93.93 0 1 0-.931 1.613l4.78 2.759a.93.93 0 0 0 1.272-.34l6.985-12.099a.93.93 0 1 0-1.613-.93z"></path>
            <path stroke-linecap="round" stroke-width="1.867" stroke="#ffffff" d="m366.352 139.739 12.449 6.536" fill="none"></path>
            <path stroke-linecap="round" stroke-width="1.867" stroke="#ffffff" d="m366.974 148.138 6.877-12.264" fill="none"></path>
            <g filter="url(#14f4ad8a-649a-4373-bf88-34130f5e8504_comp-lz1e0ayk)">
                <path fill-opacity=".34" fill="url(#212da824-e7ae-4737-903d-1f4eb95e555a_comp-lz1e0ayk)" transform="matrix(0 -1 -1 0 483.994 397.743)" d="M201.05 6.639V313.92a6.64 6.64 0 0 1-6.639 6.639H6.639A6.64 6.64 0 0 1 0 313.92V6.639A6.64 6.64 0 0 1 6.639 0h187.772a6.64 6.64 0 0 1 6.639 6.639"></path>
                <path stroke-width=".622" stroke="url(#685f471e-1dba-436a-a588-32eaa5878a5a_comp-lz1e0ayk)" transform="matrix(0 -1 -1 0 483.372 397.12)" d="M200.116 6.017v307.281a6.33 6.33 0 0 1-6.328 6.328H6.017a6.33 6.33 0 0 1-6.328-6.328V6.017A6.33 6.33 0 0 1 6.017-.311h187.771a6.33 6.33 0 0 1 6.328 6.328z" fill="none"></path>
            </g>
            <path fill="#ffffff" d="M435.15 195.998a2.18 2.18 0 0 1-1.596.695H223.409c-2.281 0-3.028-3.062-1.003-4.113.31-.16.654-.244 1.003-.244h210.145c1.903 0 2.892 2.268 1.596 3.662"></path>
            <path fill="#59577D" d="M458.534 177.034s6.747 11.525 5.06 12.93c-1.687 1.406-18.113 6.528-20.521 6.747-3.092.281-5.341-2.249-2.811-3.654 2.53-1.406 7.871-7.309 7.871-9.277v-5.06z"></path>
            <path fill="#D6A7AD" d="M408.497 57.564c6.521 0 11.807-5.286 11.807-11.806 0-6.521-5.286-11.807-11.807-11.807-6.52 0-11.806 5.286-11.806 11.807 0 6.52 5.286 11.806 11.806 11.806"></path>
            <path fill="#D6A7AD" d="M418.055 46.882s3.654 6.465 8.152 7.308c4.498.844-11.806 13.775-11.806 13.775s-3.936-12.369-7.309-12.931 10.963-8.152 10.963-8.152"></path>
            <path fill="#D6A7AD" d="M431.548 116.034s-8.152 12.649-3.092 14.898 7.871-13.212 7.871-13.212z"></path>
            <path fill="#59577D" d="M416.216 44.424c-.453-.057-.597-.63-.673-1.08-.408-2.41-2.205-4.697-4.62-5.087a6.55 6.55 0 0 0-2.753.222 10.5 10.5 0 0 0-3.532 1.739 5.8 5.8 0 0 1-1.765 1.108c-.443.13-2.324.966-2.763 1.108-.967.31-1.766 1.322-2.761 1.122-.953-.191-1.314-1.341-1.467-2.3-.349-2.185.902-5.445 2.145-7.276.944-1.388 2.541-2.188 4.137-2.708a29.7 29.7 0 0 1 5.738-1.14c2.626-.31 5.346-.475 7.862.337s4.809 2.798 5.278 5.4c.098.542.117 1.097.237 1.635.292 1.311 1.16 2.414 1.666 3.659a7.05 7.05 0 0 1-.215 5.711c-.701 1.41-1.92 2.764-1.657 4.316l-2.169-1.71a1.58 1.58 0 0 1-.724-1.844l.315-2.716a2.4 2.4 0 0 0-.14-1.469c-.964-1.684-1.384 1.068-2.139.973"></path>
            <path fill="#7F83C8" d="m409.622 71.62-3.044 1.127s-1.454 6.462-.892 7.586c.563 1.125.844.282 0 2.53-.843 2.25-3.373 8.152-3.654 8.996-.281.843-16.304-5.341-16.304-8.433 0 0-3.373 3.935-5.06 4.778 0 0 18.553 13.493 21.083 15.18s3.935.843 6.184-1.124 11.807-18.272 11.807-18.272z"></path>
            <path fill="#7F83C8" d="M406.53 73.306c0 3.654 10.963 14.055 10.963 14.055l10.401 8.714s.281 3.092 1.405 3.373 2.53.282 1.406 1.968c-1.125 1.687-3.936 5.341-1.406 5.903q1.145.174 2.302.22c.675.039 1.468.076 2.359.109 2.08.073 4.683.121 7.503.102q1.201-.005 2.445-.029c10.629-.21 22.941-1.433 21.935-5.461-1.687-6.747-.562-8.996-4.217-12.65s-9.557-16.304-9.557-16.304-11.807-19.959-21.645-19.959l-2.044-.537a4.68 4.68 0 0 0-5.108 1.962c-1.973 3.006-5.085 7.52-6.904 8.976-2.811 2.249-3.249.635-3.249.635s-6.589 5.268-6.589 8.923"></path>
            <path fill="#7269AA" d="m436.608 96.637-6.052 21.005c2.67.096 3.413 2.874 7.158 2.801.944-2.833 8.041-18.51 8.733-21.276 2.53-10.12-1.687-25.58-3.936-32.889s-7.871-9.276-7.871-9.276a25.6 25.6 0 0 0-6.465 3.373c-3.655 2.53 8.433 36.262 8.433 36.262" opacity=".5"></path>
            <path fill="#D6A7AD" d="M385.255 84.783s-5.06-14.336-8.714-9.839c-3.654 4.498 5.622 12.088 5.622 12.088z"></path>
            <path fill="#B7B3D3" d="M58.663 197.156c-17.496 0-31.695 14.199-31.695 31.695s14.2 31.695 31.695 31.695 31.696-14.199 31.696-31.695-14.2-31.695-31.696-31.695m0 34.865a3.18 3.18 0 0 1-3.17-3.17v-12.678a3.18 3.18 0 0 1 3.17-3.17 3.18 3.18 0 0 1 3.17 3.17v12.678a3.18 3.18 0 0 1-3.17 3.17m3.17 12.678h-6.34v-6.339h6.34z"></path>
            <path fill="#B7B3D3" d="M610.484 197.156c-17.496 0-31.695 14.199-31.695 31.695s14.199 31.695 31.695 31.695 31.695-14.199 31.695-31.695-14.199-31.695-31.695-31.695m0 34.865a3.18 3.18 0 0 1-3.169-3.17v-12.678a3.18 3.18 0 0 1 3.169-3.17 3.18 3.18 0 0 1 3.17 3.17v12.678a3.18 3.18 0 0 1-3.17 3.17m3.17 12.678h-6.339v-6.339h6.339z"></path>
            <path fill="#ffffff" d="M335.218 261.728c-19.927 0-36.1 16.173-36.1 36.101 0 19.927 16.173 36.1 36.1 36.1s36.101-16.173 36.101-36.1-16.173-36.101-36.101-36.101m0 39.711a3.62 3.62 0 0 1-3.61-3.61v-14.441a3.62 3.62 0 0 1 3.61-3.61 3.62 3.62 0 0 1 3.61 3.61v14.441a3.62 3.62 0 0 1-3.61 3.61m3.61 14.44h-7.22v-7.22h7.22z"></path>
        </g>
        <defs fill="none">
            <linearGradient gradientUnits="userSpaceOnUse" y2="229.496" x2="702.025" y1="229.496" x1="523.456" id="38b44ca5-afa0-4d92-b479-36537cfc0f56_comp-lz1e0ayk">
                <stop stop-color="#5F5A80"></stop>
                <stop stop-opacity="0" stop-color="#8D8D8D" offset="1"></stop>
            </linearGradient>
            <linearGradient gradientUnits="userSpaceOnUse" y2="113.459" x2="178.568" y1="113.459" x1="0" id="4721aedb-1a5a-4ffc-861a-7c4e735f4a38_comp-lz1e0ayk">
                <stop stop-color="#5F5A80"></stop>
                <stop stop-opacity="0" stop-color="#8D8D8D" offset="1"></stop>
            </linearGradient>
            <linearGradient gradientUnits="userSpaceOnUse" y2="78.156" x2="246.59" y1="246.283" x1="53.404" id="212da824-e7ae-4737-903d-1f4eb95e555a_comp-lz1e0ayk">
                <stop stop-color="#9B8BFA"></stop>
                <stop stop-color="#D7D0FF" offset="1"></stop>
            </linearGradient>
            <linearGradient gradientUnits="userSpaceOnUse" y2="101.684" x2="40.096" y1="15.393" x1="190.055" id="685f471e-1dba-436a-a588-32eaa5878a5a_comp-lz1e0ayk">
                <stop stop-color="#B7ABFF" offset=".138"></stop>
                <stop stop-opacity="0" stop-color="#B7ABFF" offset="1"></stop>
            </linearGradient>
            <clipPath id="30bf1b25-b24d-4362-8c5c-b3bdcd4476ee_comp-lz1e0ayk">
                <path fill="#ffffff" d="M666.569 0v428.048H0V0z"></path>
            </clipPath>
            <filter color-interpolation-filters="sRGB" filterUnits="userSpaceOnUse" height="225.948" width="345.457" y="184.244" x="150.986" id="14f4ad8a-649a-4373-bf88-34130f5e8504_comp-lz1e0ayk">
                <feFlood result="BackgroundImageFix" flood-opacity="0"></feFlood>
                <feGaussianBlur stdDeviation="6.224" in="BackgroundImageFix"></feGaussianBlur>
                <feComposite result="effect1_backgroundBlur_1_7390" operator="in" in2="SourceAlpha"></feComposite>
                <feBlend result="shape" in2="effect1_backgroundBlur_1_7390" in="SourceGraphic"></feBlend>
            </filter>
        </defs>
    </g>
</svg>
