<svg preserveAspectRatio="xMidYMid meet" data-bbox="0 16.272 712 355.071" xmlns="http://www.w3.org/2000/svg" viewBox="0 0 659 372" height="372" width="659" data-type="ugc" role="presentation" aria-hidden="true" aria-label="" wixshapeid="9484df_71381ce691644fb8930672c7fcba7ece.svg">
    <g>
        <g clip-path="url(#c641ba6f-ed22-4dbe-a6ec-41cc1200cfb1_comp-lz1ek10w3)">
            <path fill="#E6E6E6" d="m240.071 321.659-8.133-3.425-5.579-40.773h-74.301l-6.048 40.607-7.277 3.638a1.73 1.73 0 0 0-.909 1.942 1.73 1.73 0 0 0 1.682 1.331h99.895a1.728 1.728 0 0 0 .67-3.32"></path>
            <path fill="#CCCCCC" d="M350.833 281.349H28.447A28.08 28.08 0 0 1 .432 253.27v-28.942h378.416v28.942a28.08 28.08 0 0 1-28.015 28.079"></path>
            <path fill="#E6E6E6" d="M379.28 248.087H0V48.079A28.11 28.11 0 0 1 28.079 20H351.2a28.11 28.11 0 0 1 28.079 28.079z"></path>
            <path fill="#ffffff" d="M349.042 232.103H30.239a14.27 14.27 0 0 1-14.256-14.255V50.239A14.27 14.27 0 0 1 30.24 35.984h318.803a14.27 14.27 0 0 1 14.255 14.255v167.609a14.27 14.27 0 0 1-14.255 14.255"></path>
            <path fill="#4B6A55" d="M208.914 121.548q0 .041.003.082a54.566 54.566 0 0 0 54.458 51.107 54.566 54.566 0 0 0 54.459-51.107 1.26 1.26 0 0 0-.749-1.23 1.2 1.2 0 0 0-.495-.101H210.161a1.253 1.253 0 0 0-1.247 1.249"></path>
            <path fill="#E6E6E6" d="M299.743 77.732c0 .424-.169.832-.469 1.133l-37.055 37.054a1.58 1.58 0 0 1-1.131.469h-50.927a1.57 1.57 0 0 1-1.165-.504 1.62 1.62 0 0 1-.434-1.204 54.93 54.93 0 0 1 63.337-50.776 54.93 54.93 0 0 1 27.287 12.613 1.6 1.6 0 0 1 .556 1.155z"></path>
            <path fill="#86C99B" d="M244.387 194.572a9.803 9.803 0 0 1-16.802 6.759 9.802 9.802 0 0 1 7.102-16.66 9.814 9.814 0 0 1 9.7 9.901"></path>
            <path fill="#4B6A55" d="M272.388 194.86a9.796 9.796 0 0 1-11.811 9.492 9.8 9.8 0 0 1-7.621-7.78 9.8 9.8 0 0 1 4.271-10.018 9.8 9.8 0 0 1 5.462-1.595 9.81 9.81 0 0 1 9.699 9.901"></path>
            <path fill="#E6E6E6" d="M300.39 195.147a9.8 9.8 0 0 1-19.432 1.713 9.8 9.8 0 0 1 9.732-11.614 9.8 9.8 0 0 1 6.897 2.945 9.8 9.8 0 0 1 2.803 6.956"></path>
            <path fill="#E6E6E6" d="m158.504 89.26-89.923-.923a6.67 6.67 0 1 0-.136 13.338l89.922.922a6.66 6.66 0 0 0 4.739-1.903 6.67 6.67 0 0 0 1.522-7.256 6.68 6.68 0 0 0-6.124-4.179"></path>
            <path fill="#E6E6E6" d="m158.129 125.702-89.922-.922a6.66 6.66 0 0 0-6.582 5.197 6.664 6.664 0 0 0 3.713 7.52 6.6 6.6 0 0 0 2.732.621l89.923.922a6.66 6.66 0 0 0 6.212-4.051 6.67 6.67 0 0 0-6.076-9.287"></path>
            <path fill="#E6E6E6" d="m157.756 162.146-89.922-.923a6.66 6.66 0 0 0-4.74 1.903 6.668 6.668 0 0 0 4.603 11.435l89.922.923a6.68 6.68 0 0 0 4.742-1.902 6.68 6.68 0 0 0 2.005-4.699 6.7 6.7 0 0 0-.483-2.559 6.66 6.66 0 0 0-3.578-3.647 6.7 6.7 0 0 0-2.549-.531"></path>
            <path fill="#86C99B" d="m132.914 88.997-64.333-.66a6.67 6.67 0 1 0-.136 13.338l62.992.646a7.6 7.6 0 0 0 4.74-6.218 7.6 7.6 0 0 0-3.263-7.106"></path>
            <path fill="#86C99B" d="m102.829 125.135-34.622-.355a6.66 6.66 0 0 0-6.582 5.197 6.664 6.664 0 0 0 3.713 7.52l31.8.326a7.6 7.6 0 0 0 5.391-2.17 7.6 7.6 0 0 0 2.28-5.345 7.44 7.44 0 0 0-1.98-5.173"></path>
            <path fill="#86C99B" d="m151.037 162.077-83.203-.854a6.66 6.66 0 0 0-4.74 1.903 6.668 6.668 0 0 0 4.603 11.435l83.739.859a7.57 7.57 0 0 0 3.791-6.791 7.57 7.57 0 0 0-4.19-6.552"></path>
            <path fill="#D6A7AD" d="m498.642 361.331-9.726-.001-4.625-37.513 14.354.001z"></path>
            <path fill="#59577D" d="M481.969 358.551h18.757v11.81H470.16a11.8 11.8 0 0 1 7.29-10.911 11.8 11.8 0 0 1 4.519-.899"></path>
            <path fill="#D6A7AD" d="m601.391 354.059-9.399 2.498-14.109-35.066 13.873-3.687z"></path>
            <path fill="#59577D" d="m584.564 355.656 18.127-4.818 3.033 11.414-29.54 7.85a11.806 11.806 0 0 1 8.38-14.446"></path>
            <path fill="#D6A7AD" d="M540.171 88.198c11.539 0 20.894-9.355 20.894-20.895S551.71 46.41 540.171 46.41c-11.54 0-20.895 9.355-20.895 20.894 0 11.54 9.355 20.895 20.895 20.895"></path>
            <path fill="#68726B" d="m580.753 345.408-30.506-60.592-28.598-65.583-13.695 56.062-2.096 66.651a3.805 3.805 0 0 1-3.383 3.683c-7.144.835-19.224 1.563-19.873-2.936-8.914-61.787-7.603-96.917-4.934-115.506 2.907-20.246 7.898-25.757 8.109-25.982l.142-.151 74.385 6.802.283.026 19.99 64.803 23.875 65.399a3.82 3.82 0 0 1-.208 3.096 3.8 3.8 0 0 1-1.014 1.219 3.8 3.8 0 0 1-1.42.705l-16.685 4.29a3.8 3.8 0 0 1-.94.119 3.86 3.86 0 0 1-3.432-2.105"></path>
            <path fill="#D6A7AD" d="m585.421 202.609-9.092-54.551 2.241-13.506a56.2 56.2 0 0 0-4.899-33.763l-12.557 59.53 16.053 44.717a8.502 8.502 0 0 0 8.595 13.985 8.507 8.507 0 0 0 4.248-13.465 8.5 8.5 0 0 0-4.589-2.947"></path>
            <path fill="#D6A7AD" d="m494.408 148.423-27.207 48.148a8.51 8.51 0 0 0-8.829 5.385 8.51 8.51 0 0 0 8.086 11.589 8.51 8.51 0 0 0 8.101-6.428 8.5 8.5 0 0 0-.432-5.442l30.383-36.526 8.569-60.233a56.2 56.2 0 0 0-16.155 30.049z"></path>
            <path fill="#BDE9CB" d="m555.738 213.601-67.854-7.41a6.01 6.01 0 0 1-4.553-2.964 6.02 6.02 0 0 1-.309-5.424l11.542-26.454a99.5 99.5 0 0 0 6.876-23.03l1.211-7.103a62.7 62.7 0 0 0 .338-17.657 31.9 31.9 0 0 1 .396-9 15.68 15.68 0 0 1 11.531-12.458l12.357-3.196.337-.922a4.36 4.36 0 0 1 3.953-2.862 4.2 4.2 0 0 1 1.811.325l5.801 2.383 12.678-6.168a4.8 4.8 0 0 1 1.283-.413 4.76 4.76 0 0 1 5.31 3.118l.129.366 11.359.133a10.6 10.6 0 0 1 10.402 9.429l.835 7.569-15.158 48.881a92.5 92.5 0 0 0-3.009 41.574l.495 3.144a7.07 7.07 0 0 1-1.606 5.695 7.08 7.08 0 0 1-6.155 2.444"></path>
            <path fill="#BDE9CB" d="m569.614 107.156 7.601-1.113 2.319 2.722a8.54 8.54 0 0 1 2.022 5.161l1.084 26.14a8.42 8.42 0 0 1-3.624 7.292l-22.147 15.38z"></path>
            <path fill="#BDE9CB" d="M495 146.357a8.41 8.41 0 0 1-1.235-8.049l8.981-24.572a8.54 8.54 0 0 1 3.495-4.301l3.037-1.888 6.903 3.371-4.76 56.825z"></path>
            <path fill="#59577D" d="M547.951 58.716c-5.835 5.281-14.157 8.326-21.75 6.253-7.593-2.072-13.555-10.177-11.735-17.834s12.585-11.986 18.419-6.703c10.542-8.338 27.495-6.898 36.479 3.1 8.985 9.997 8.613 27.007-.8 36.602-5.561 5.67-15.988 5.364-21.208-.62-5.22-5.985-4.106-16.356.595-20.798"></path>
            <path fill="#606060" d="M711.149 371.343h-324.12a.85.85 0 0 1 0-1.701h324.12a.85.85 0 1 1 0 1.701"></path>
            <path fill="#606060" d="M353.851 325.405H29.731a.853.853 0 0 1-.85-.851.85.85 0 0 1 .85-.851h324.12a.85.85 0 0 1 0 1.702"></path>
            <path fill="#86C99B" d="M462.361 59.634c-10.868 0-20.701 8.332-20.701 21.218 0 8.228 6.339 17.906 18.993 29.033a2.63 2.63 0 0 0 3.441 0c12.628-11.127 18.967-20.805 18.967-29.033 0-12.886-9.833-21.218-20.7-21.218m.025 36.226a2.7 2.7 0 0 1-2.717-2.717c0-1.527 1.217-2.691 2.717-2.691 1.527 0 2.691 1.164 2.691 2.69 0 1.502-1.138 2.718-2.691 2.718m6.495-15.966c-1.63 2.407-3.183 3.131-4.036 4.684-.207.362-.337.673-.414 1.268-.13 1.01-.932 1.76-1.941 1.76h-.078a1.95 1.95 0 0 1-1.94-2.122c.077-.699.232-1.475.646-2.174 1.061-1.889 3.054-3.002 4.218-4.657 1.242-1.76.544-5.02-2.95-5.02-1.578 0-2.613.828-3.26 1.81-.492.751-1.475 1.01-2.303.648-1.087-.466-1.552-1.811-.88-2.769 1.32-1.915 3.519-3.338 6.418-3.338 3.182 0 5.382 1.45 6.494 3.26.932 1.579 1.501 4.477.026 6.65"></path>
            <path fill="#86C99B" d="M627.051 16.272c-10.868 0-20.701 8.332-20.701 21.218 0 8.229 6.34 17.906 18.993 29.033a2.63 2.63 0 0 0 3.441 0c12.628-11.127 18.967-20.804 18.967-29.033 0-12.886-9.832-21.218-20.7-21.218m.026 36.226a2.7 2.7 0 0 1-2.717-2.717c0-1.527 1.216-2.691 2.717-2.691 1.526 0 2.691 1.164 2.691 2.691 0 1.5-1.139 2.717-2.691 2.717m6.495-15.965c-1.631 2.406-3.183 3.13-4.037 4.683-.207.362-.336.673-.414 1.268-.13 1.01-.932 1.76-1.941 1.76h-.077a1.95 1.95 0 0 1-1.941-2.122c.078-.699.233-1.475.647-2.174 1.061-1.889 3.053-3.001 4.218-4.657 1.242-1.76.543-5.02-2.95-5.02-1.579 0-2.614.828-3.261 1.811-.491.75-1.475 1.01-2.303.647-1.086-.466-1.552-1.811-.879-2.769 1.319-1.915 3.519-3.338 6.417-3.338 3.183 0 5.382 1.45 6.495 3.26.931 1.58 1.5 4.477.026 6.65"></path>
        </g>
        <defs fill="none">
            <clipPath id="c641ba6f-ed22-4dbe-a6ec-41cc1200cfb1_comp-lz1ek10w3">
                <path fill="#ffffff" d="M658.667 0v372H0V0z"></path>
            </clipPath>
        </defs>
    </g>
</svg>